<?xml version="1.0" encoding="utf-8"?>
<!-- Generator: Adobe Illustrator 15.0.0, SVG Export Plug-In . SVG Version: 6.00 Build 0)  -->
<!DOCTYPE svg PUBLIC "-//W3C//DTD SVG 1.1//EN" "http://www.w3.org/Graphics/SVG/1.1/DTD/svg11.dtd">
<svg version="1.1" xmlns="http://www.w3.org/2000/svg" xmlns:xlink="http://www.w3.org/1999/xlink" x="0px" y="0px"
	 width="1001.491px" height="71.383px" viewBox="0 0 1001.491 71.383" enable-background="new 0 0 1001.491 71.383"
	 xml:space="preserve">
<g id="_x23_Spring_x5F_01">
	<path fill="#BBCBCC" d="M25.861,47.249v-1c-0.1-0.467-0.066-1,0.101-1.601l0.199-0.75l1-1.1c0.334-0.267,0.733-0.4,1.2-0.4
		l0.25-0.1l20.2-5.4l3.75,1l-23.95,6.4l-0.25,0.1c-0.467,0-0.866,0.134-1.2,0.4l-1,1.1l-0.199,0.75L25.861,47.249 M25.861,28.249v-1
		c-0.1-0.467-0.066-1,0.101-1.601l1.199-1.85c0.601-0.467,1.434-0.55,2.5-0.25l32.851,8.8c0.967,0.233,1.633,0.667,2,1.3l0.05-0.05
		l0.05,0.25l0.5,1.8l0.15,1.65v0.95l-0.15-0.601l-0.5-1.8l-0.05-0.25l-0.05,0.05c-0.367-0.633-1.033-1.066-2-1.3l-32.851-8.8
		c-1.066-0.3-1.899-0.217-2.5,0.25l-1.199,1.85L25.861,28.249 M44.012,46.398l18.5,4.951c1.066,0.266,1.95,0.799,2.649,1.6
		l-0.199,0.801l0.199,0.199l-0.199,0.8c-0.667-0.701-1.483-1.167-2.45-1.4l-22.25-5.951L44.012,46.398"/>
	<path fill="#ACC0C1" d="M44.012,46.398l-3.75,1l22.25,5.951c0.967,0.232,1.783,0.699,2.45,1.4l0.199,0.199l-0.55,2.051
		c-0.5,1.932-1.717,2.648-3.649,2.148l-32.851-8.799c-1.733-0.467-2.483-1.5-2.25-3.1l0.101-0.601l0.199-0.75l1-1.1
		c0.334-0.267,0.733-0.4,1.2-0.4l0.25-0.1l23.95-6.4l-3.75-1l-20.7-5.55c-1.733-0.467-2.483-1.5-2.25-3.1l0.101-0.601l1.199-1.85
		c0.601-0.467,1.434-0.55,2.5-0.25l32.851,8.8c0.967,0.233,1.633,0.667,2,1.3l0.05-0.05l0.05,0.25l0.5,1.8l0.15,0.601
		c0.233,1.6-0.517,2.616-2.25,3.05L44.012,46.398"/>
	<path fill="#E86A17" d="M9.562,20.799c0.1-2.533,0.733-4.533,1.9-6c1.566-2,4.149-3,7.75-3h50.699c3.601,0,6.2,1,7.801,3
		c1.133,1.467,1.75,3.467,1.85,6v0.1v0.75h-0.05c-0.167,2.067-0.717,3.733-1.65,5l-1.25,1.3c-1.6,1.267-3.833,1.9-6.7,1.9H19.212
		c-2.867,0-5.101-0.634-6.7-1.9l-1.2-1.25c-0.967-1.267-1.533-2.949-1.7-5.05h-0.05V20.799"/>
	<path fill="#EF975C" d="M9.562,20.799v-2c0.066-1.533,0.316-2.867,0.75-4c1.3-3.3,4.267-4.95,8.9-4.95h50.699
		c4.634,0,7.601,1.65,8.9,4.95c0.434,1.133,0.684,2.467,0.75,4v2c-0.1-2.533-0.717-4.533-1.85-6c-1.601-2-4.2-3-7.801-3H19.212
		c-3.601,0-6.184,1-7.75,3C10.295,16.266,9.661,18.266,9.562,20.799"/>
	<path fill="#BBCBCC" d="M24.562,54.749c0.033-1.933,1.033-2.9,3-2.9h34c1.967,0,2.967,0.967,3,2.9h-0.6
		c-0.5-0.601-1.301-0.9-2.4-0.9h-34c-1.1,0-1.884,0.299-2.35,0.9H24.562"/>
	<path fill="#ACC0C1" d="M24.562,54.749h0.65c0.466-0.601,1.25-0.9,2.35-0.9h34c1.1,0,1.9,0.299,2.4,0.9h0.6v2.1c0,2-1,3-3,3h-34
		c-2,0-3-1-3-3V54.749"/>
</g>
<g id="_x23_Spring_x5F_02">
	<path fill="#BBCBCC" d="M95.861,47.668v-0.966c-0.1-0.45-0.066-0.965,0.101-1.545l0.199-0.724l1-1.062
		c0.334-0.257,0.733-0.387,1.2-0.387l0.25-0.096l20.2-5.213l3.75,0.966l-23.95,6.178l-0.25,0.096c-0.467,0-0.866,0.129-1.2,0.387
		l-1,1.062l-0.199,0.724L95.861,47.668 M95.861,29.329v-0.966c-0.1-0.45-0.066-0.965,0.101-1.545l1.199-1.785
		c0.601-0.45,1.434-0.53,2.5-0.241l32.851,8.494c0.967,0.225,1.633,0.644,2,1.254l0.05-0.048l0.05,0.241l0.5,1.737l0.15,1.593v0.917
		l-0.15-0.579l-0.5-1.737l-0.05-0.241l-0.05,0.048c-0.367-0.61-1.033-1.029-2-1.255l-32.851-8.493c-1.066-0.29-1.899-0.21-2.5,0.241
		l-1.199,1.785L95.861,29.329 M114.012,46.847l18.5,4.778c1.066,0.257,1.95,0.771,2.649,1.544l-0.199,0.773l0.199,0.191
		l-0.199,0.773c-0.667-0.676-1.483-1.127-2.45-1.353l-22.25-5.743L114.012,46.847"/>
	<path fill="#ACC0C1" d="M114.012,46.847l-3.75,0.965l22.25,5.743c0.967,0.226,1.783,0.677,2.45,1.353l0.199,0.191l-0.55,1.98
		c-0.5,1.865-1.717,2.557-3.649,2.074l-32.851-8.494c-1.733-0.45-2.483-1.447-2.25-2.991l0.101-0.58l0.199-0.724l1-1.062
		c0.334-0.258,0.733-0.387,1.2-0.387l0.25-0.096l23.95-6.178l-3.75-0.966l-20.7-5.356c-1.733-0.45-2.483-1.447-2.25-2.991
		l0.101-0.58l1.199-1.785c0.601-0.451,1.434-0.531,2.5-0.241l32.851,8.493c0.967,0.226,1.633,0.645,2,1.255l0.05-0.048l0.05,0.241
		l0.5,1.737l0.15,0.579c0.233,1.544-0.517,2.525-2.25,2.944L114.012,46.847"/>
	<path fill="#E86A17" d="M79.562,21.798c0.1-2.533,0.733-4.533,1.9-6c1.566-2,4.149-3,7.75-3h50.699c3.601,0,6.2,1,7.801,3
		c1.133,1.467,1.75,3.467,1.85,6v0.1v0.75h-0.05c-0.167,2.067-0.717,3.733-1.65,5l-1.25,1.3c-1.6,1.267-3.833,1.9-6.7,1.9H89.212
		c-2.867,0-5.101-0.634-6.7-1.9l-1.2-1.25c-0.967-1.267-1.533-2.949-1.7-5.05h-0.05V21.798"/>
	<path fill="#EF975C" d="M79.562,21.798v-2c0.066-1.533,0.316-2.867,0.75-4c1.3-3.3,4.267-4.95,8.9-4.95h50.699
		c4.634,0,7.601,1.65,8.9,4.95c0.434,1.133,0.684,2.467,0.75,4v2c-0.1-2.533-0.717-4.533-1.85-6c-1.601-2-4.2-3-7.801-3H89.212
		c-3.601,0-6.184,1-7.75,3C80.295,17.265,79.661,19.265,79.562,21.798"/>
	<path fill="#BBCBCC" d="M94.562,54.749c0.033-1.935,1.033-2.901,3-2.901h34c1.967,0,2.967,0.967,3,2.901h-0.6
		c-0.5-0.602-1.301-0.901-2.4-0.901h-34c-1.1,0-1.884,0.3-2.35,0.901H94.562"/>
	<path fill="#ACC0C1" d="M94.562,54.749h0.65c0.466-0.602,1.25-0.901,2.35-0.901h34c1.1,0,1.9,0.3,2.4,0.901h0.6v2.1c0,2-1,3-3,3
		h-34c-2,0-3-1-3-3V54.749"/>
</g>
<g id="_x23_Spring_x5F_03">
	<path fill="#BBCBCC" d="M165.861,48.197v-0.921c-0.1-0.431-0.066-0.922,0.101-1.475l0.199-0.691l1-1.013
		c0.334-0.246,0.733-0.369,1.2-0.369l0.25-0.092l20.2-4.976l3.75,0.922l-23.95,5.896l-0.25,0.092c-0.467,0-0.866,0.123-1.2,0.368
		l-1,1.014l-0.199,0.691L165.861,48.197 M165.861,30.693v-0.921c-0.1-0.431-0.066-0.922,0.101-1.475l1.199-1.704
		c0.601-0.431,1.434-0.507,2.5-0.23l32.851,8.107c0.967,0.215,1.633,0.614,2,1.197l0.05-0.047l0.05,0.231l0.5,1.657l0.15,1.521
		v0.876l-0.15-0.554l-0.5-1.658l-0.05-0.23l-0.05,0.046c-0.367-0.582-1.033-0.982-2-1.197l-32.851-8.106
		c-1.066-0.276-1.899-0.2-2.5,0.229l-1.199,1.704L165.861,30.693 M184.012,47.413l18.5,4.562c1.066,0.245,1.95,0.736,2.649,1.474
		l-0.199,0.737l0.199,0.184l-0.199,0.738c-0.667-0.646-1.483-1.075-2.45-1.291l-22.25-5.481L184.012,47.413"/>
	<path fill="#ACC0C1" d="M184.012,47.413l-3.75,0.922l22.25,5.481c0.967,0.216,1.783,0.646,2.45,1.291l0.199,0.183l-0.55,1.89
		c-0.5,1.78-1.717,2.44-3.649,1.98l-32.851-8.107c-1.733-0.43-2.483-1.382-2.25-2.855l0.101-0.553l0.199-0.691l1-1.014
		c0.334-0.245,0.733-0.368,1.2-0.368l0.25-0.092l23.95-5.896l-3.75-0.922l-20.7-5.112c-1.733-0.43-2.483-1.382-2.25-2.855
		l0.101-0.554l1.199-1.704c0.601-0.43,1.434-0.506,2.5-0.229l32.851,8.106c0.967,0.215,1.633,0.615,2,1.197l0.05-0.046l0.05,0.23
		l0.5,1.658l0.15,0.554c0.233,1.474-0.517,2.41-2.25,2.81L184.012,47.413"/>
	<path fill="#E86A17" d="M149.562,22.798c0.1-2.533,0.733-4.533,1.9-6c1.566-2,4.149-3,7.75-3h50.699c3.601,0,6.2,1,7.801,3
		c1.133,1.467,1.75,3.467,1.85,6v0.1v0.75h-0.05c-0.167,2.067-0.717,3.733-1.65,5l-1.25,1.3c-1.6,1.267-3.833,1.9-6.7,1.9h-50.699
		c-2.867,0-5.101-0.634-6.7-1.9l-1.2-1.25c-0.967-1.267-1.533-2.949-1.7-5.05h-0.05V22.798"/>
	<path fill="#EF975C" d="M149.562,22.798v-2c0.066-1.533,0.316-2.867,0.75-4c1.3-3.3,4.267-4.95,8.9-4.95h50.699
		c4.634,0,7.601,1.65,8.9,4.95c0.434,1.133,0.684,2.467,0.75,4v2c-0.1-2.533-0.717-4.533-1.85-6c-1.601-2-4.2-3-7.801-3h-50.699
		c-3.601,0-6.184,1-7.75,3C150.295,18.265,149.661,20.265,149.562,22.798"/>
	<path fill="#BBCBCC" d="M164.562,54.748c0.033-1.934,1.033-2.9,3-2.9h34c1.967,0,2.967,0.967,3,2.9h-0.6
		c-0.5-0.601-1.301-0.9-2.4-0.9h-34c-1.1,0-1.884,0.3-2.35,0.9H164.562"/>
	<path fill="#ACC0C1" d="M164.562,54.748h0.65c0.466-0.601,1.25-0.9,2.35-0.9h34c1.1,0,1.9,0.3,2.4,0.9h0.6v2.101c0,2-1,3-3,3h-34
		c-2,0-3-1-3-3V54.748"/>
</g>
<g id="_x23_Spring_x5F_04">
	<path fill="#BBCBCC" d="M235.861,48.794v-0.872c-0.1-0.406-0.066-0.871,0.101-1.395l0.199-0.654l1-0.959
		c0.334-0.232,0.733-0.349,1.2-0.349l0.25-0.087l20.2-4.708l3.75,0.872l-23.95,5.579l-0.25,0.087c-0.467,0-0.866,0.116-1.2,0.349
		l-1,0.959l-0.199,0.654L235.861,48.794 M235.861,32.23v-0.872c-0.1-0.406-0.066-0.871,0.101-1.395l1.199-1.613
		c0.601-0.406,1.434-0.479,2.5-0.218l32.851,7.672c0.967,0.203,1.633,0.581,2,1.133l0.05-0.044l0.05,0.219l0.5,1.568l0.15,1.439
		v0.828l-0.15-0.523l-0.5-1.569l-0.05-0.218l-0.05,0.043c-0.367-0.551-1.033-0.93-2-1.133l-32.851-7.671
		c-1.066-0.262-1.899-0.189-2.5,0.217l-1.199,1.613L235.861,32.23 M254.012,48.052l18.5,4.316c1.066,0.232,1.95,0.697,2.649,1.395
		l-0.199,0.698l0.199,0.173l-0.199,0.699c-0.667-0.611-1.483-1.018-2.45-1.222l-22.25-5.188L254.012,48.052"/>
	<path fill="#ACC0C1" d="M254.012,48.052l-3.75,0.872l22.25,5.188c0.967,0.204,1.783,0.61,2.45,1.222l0.199,0.173l-0.55,1.788
		c-0.5,1.685-1.717,2.31-3.649,1.874l-32.851-7.672c-1.733-0.407-2.483-1.308-2.25-2.702l0.101-0.523l0.199-0.654l1-0.959
		c0.334-0.232,0.733-0.349,1.2-0.349l0.25-0.087l23.95-5.579l-3.75-0.872l-20.7-4.838c-1.733-0.407-2.483-1.308-2.25-2.702
		l0.101-0.523l1.199-1.613c0.601-0.406,1.434-0.479,2.5-0.217l32.851,7.671c0.967,0.203,1.633,0.582,2,1.133l0.05-0.043l0.05,0.218
		l0.5,1.569l0.15,0.523c0.233,1.395-0.517,2.28-2.25,2.658L254.012,48.052"/>
	<path fill="#E86A17" d="M219.562,23.798c0.1-2.533,0.733-4.533,1.9-6c1.566-2,4.149-3,7.75-3h50.699c3.601,0,6.2,1,7.801,3
		c1.133,1.467,1.75,3.467,1.85,6v0.1v0.75h-0.05c-0.167,2.067-0.717,3.733-1.65,5l-1.25,1.3c-1.6,1.267-3.833,1.9-6.7,1.9h-50.699
		c-2.867,0-5.101-0.634-6.7-1.9l-1.2-1.25c-0.967-1.267-1.533-2.949-1.7-5.05h-0.05V23.798"/>
	<path fill="#EF975C" d="M219.562,23.798v-2c0.066-1.533,0.316-2.867,0.75-4c1.3-3.3,4.267-4.95,8.9-4.95h50.699
		c4.634,0,7.601,1.65,8.9,4.95c0.434,1.133,0.684,2.467,0.75,4v2c-0.1-2.533-0.717-4.533-1.85-6c-1.601-2-4.2-3-7.801-3h-50.699
		c-3.601,0-6.184,1-7.75,3C220.295,19.265,219.661,21.265,219.562,23.798"/>
	<path fill="#BBCBCC" d="M234.562,54.748c0.033-1.934,1.033-2.9,3-2.9h34c1.967,0,2.967,0.967,3,2.9h-0.6
		c-0.5-0.601-1.301-0.9-2.4-0.9h-34c-1.1,0-1.884,0.3-2.35,0.9H234.562"/>
	<path fill="#ACC0C1" d="M234.562,54.748h0.65c0.466-0.601,1.25-0.9,2.35-0.9h34c1.1,0,1.9,0.3,2.4,0.9h0.6v2.101c0,2-1,3-3,3h-34
		c-2,0-3-1-3-3V54.748"/>
</g>
<g id="_x23_Spring_x5F_05">
	<path fill="#BBCBCC" d="M305.861,49.396v-0.822c-0.1-0.384-0.066-0.822,0.101-1.315l0.199-0.617l1-0.903
		c0.334-0.22,0.733-0.329,1.2-0.329l0.25-0.082l20.2-4.439l3.75,0.822l-23.95,5.261l-0.25,0.082c-0.467,0-0.866,0.109-1.2,0.329
		l-1,0.904l-0.199,0.616L305.861,49.396 M305.861,33.778v-0.822c-0.1-0.383-0.066-0.821,0.101-1.314l1.199-1.521
		c0.601-0.384,1.434-0.452,2.5-0.206l32.851,7.233c0.967,0.191,1.633,0.548,2,1.068l0.05-0.042l0.05,0.206l0.5,1.479l0.15,1.356
		v0.78l-0.15-0.493l-0.5-1.479l-0.05-0.205l-0.05,0.041c-0.367-0.521-1.033-0.877-2-1.068l-32.851-7.232
		c-1.066-0.247-1.899-0.179-2.5,0.204l-1.199,1.521L305.861,33.778 M324.012,48.695l18.5,4.069c1.066,0.219,1.95,0.657,2.649,1.314
		l-0.199,0.658l0.199,0.164l-0.199,0.658c-0.667-0.576-1.483-0.959-2.45-1.151l-22.25-4.891L324.012,48.695"/>
	<path fill="#ACC0C1" d="M324.012,48.695l-3.75,0.822l22.25,4.891c0.967,0.192,1.783,0.575,2.45,1.151l0.199,0.163l-0.55,1.687
		c-0.5,1.588-1.717,2.178-3.649,1.767l-32.851-7.233c-1.733-0.384-2.483-1.232-2.25-2.547l0.101-0.494l0.199-0.616l1-0.904
		c0.334-0.22,0.733-0.329,1.2-0.329l0.25-0.082l23.95-5.261l-3.75-0.822l-20.7-4.561c-1.733-0.384-2.483-1.232-2.25-2.548
		l0.101-0.493l1.199-1.521c0.601-0.383,1.434-0.451,2.5-0.204l32.851,7.232c0.967,0.191,1.633,0.548,2,1.068l0.05-0.041l0.05,0.205
		l0.5,1.479l0.15,0.493c0.233,1.315-0.517,2.15-2.25,2.507L324.012,48.695"/>
	<path fill="#E86A17" d="M289.562,25.798c0.1-2.533,0.733-4.533,1.9-6c1.566-2,4.149-3,7.75-3h50.699c3.601,0,6.2,1,7.801,3
		c1.133,1.467,1.75,3.467,1.85,6v0.1v0.75h-0.05c-0.167,2.067-0.717,3.733-1.65,5l-1.25,1.3c-1.6,1.267-3.833,1.9-6.7,1.9h-50.699
		c-2.867,0-5.101-0.634-6.7-1.9l-1.2-1.25c-0.967-1.267-1.533-2.949-1.7-5.05h-0.05V25.798"/>
	<path fill="#EF975C" d="M289.562,25.798v-2c0.066-1.533,0.316-2.867,0.75-4c1.3-3.3,4.267-4.95,8.9-4.95h50.699
		c4.634,0,7.601,1.65,8.9,4.95c0.434,1.133,0.684,2.467,0.75,4v2c-0.1-2.533-0.717-4.533-1.85-6c-1.601-2-4.2-3-7.801-3h-50.699
		c-3.601,0-6.184,1-7.75,3C290.295,21.265,289.661,23.265,289.562,25.798"/>
	<path fill="#BBCBCC" d="M304.562,54.748c0.033-1.934,1.033-2.9,3-2.9h34c1.967,0,2.967,0.967,3,2.9h-0.6
		c-0.5-0.601-1.301-0.9-2.4-0.9h-34c-1.1,0-1.884,0.3-2.35,0.9H304.562"/>
	<path fill="#ACC0C1" d="M304.562,54.748h0.65c0.466-0.601,1.25-0.9,2.35-0.9h34c1.1,0,1.9,0.3,2.4,0.9h0.6v2.101c0,2-1,3-3,3h-34
		c-2,0-3-1-3-3V54.748"/>
</g>
<g id="_x23_Spring_x5F_06">
	<path fill="#BBCBCC" d="M375.861,50.234v-0.753c-0.1-0.352-0.066-0.752,0.101-1.204l0.199-0.564l1-0.827
		c0.334-0.201,0.733-0.302,1.2-0.302l0.25-0.075l20.2-4.063l3.75,0.752l-23.95,4.815l-0.25,0.075c-0.467,0-0.866,0.101-1.2,0.301
		l-1,0.828l-0.199,0.564L375.861,50.234 M375.861,35.939v-0.753c-0.1-0.351-0.066-0.752,0.101-1.203l1.199-1.393
		c0.601-0.351,1.434-0.413,2.5-0.188l32.851,6.62c0.967,0.176,1.633,0.502,2,0.979l0.05-0.038l0.05,0.188l0.5,1.354l0.15,1.242
		v0.714l-0.15-0.451l-0.5-1.354l-0.05-0.188l-0.05,0.037c-0.367-0.476-1.033-0.802-2-0.978l-32.851-6.62
		c-1.066-0.226-1.899-0.164-2.5,0.188l-1.199,1.392L375.861,35.939 M394.012,49.593l18.5,3.726c1.066,0.2,1.95,0.602,2.649,1.203
		l-0.199,0.603l0.199,0.149l-0.199,0.604c-0.667-0.527-1.483-0.879-2.45-1.054l-22.25-4.478L394.012,49.593"/>
	<path fill="#ACC0C1" d="M394.012,49.593l-3.75,0.753l22.25,4.478c0.967,0.175,1.783,0.526,2.45,1.054l0.199,0.149l-0.55,1.543
		c-0.5,1.453-1.717,1.993-3.649,1.617l-32.851-6.621c-1.733-0.351-2.483-1.128-2.25-2.331l0.101-0.452l0.199-0.564l1-0.828
		c0.334-0.2,0.733-0.301,1.2-0.301l0.25-0.075l23.95-4.815l-3.75-0.752l-20.7-4.175c-1.733-0.352-2.483-1.129-2.25-2.332
		l0.101-0.452l1.199-1.392c0.601-0.352,1.434-0.413,2.5-0.188l32.851,6.62c0.967,0.176,1.633,0.502,2,0.978l0.05-0.037l0.05,0.188
		l0.5,1.354l0.15,0.451c0.233,1.204-0.517,1.969-2.25,2.295L394.012,49.593"/>
	<path fill="#E86A17" d="M359.562,27.798c0.1-2.533,0.733-4.533,1.9-6c1.566-2,4.149-3,7.75-3h50.699c3.601,0,6.2,1,7.801,3
		c1.133,1.467,1.75,3.467,1.85,6v0.1v0.75h-0.05c-0.167,2.067-0.717,3.733-1.65,5l-1.25,1.3c-1.6,1.267-3.833,1.9-6.7,1.9h-50.699
		c-2.867,0-5.101-0.634-6.7-1.9l-1.2-1.25c-0.967-1.267-1.533-2.949-1.7-5.05h-0.05V27.798"/>
	<path fill="#EF975C" d="M359.562,27.798v-2c0.066-1.533,0.316-2.867,0.75-4c1.3-3.3,4.267-4.95,8.9-4.95h50.699
		c4.634,0,7.601,1.65,8.9,4.95c0.434,1.133,0.684,2.467,0.75,4v2c-0.1-2.533-0.717-4.533-1.85-6c-1.601-2-4.2-3-7.801-3h-50.699
		c-3.601,0-6.184,1-7.75,3C360.295,23.265,359.661,25.265,359.562,27.798"/>
	<path fill="#BBCBCC" d="M374.562,54.748c0.033-1.934,1.033-2.9,3-2.9h34c1.967,0,2.967,0.967,3,2.9h-0.6
		c-0.5-0.601-1.301-0.9-2.4-0.9h-34c-1.1,0-1.884,0.3-2.35,0.9H374.562"/>
	<path fill="#ACC0C1" d="M374.562,54.748h0.65c0.466-0.601,1.25-0.9,2.35-0.9h34c1.1,0,1.9,0.3,2.4,0.9h0.6v2.101c0,2-1,3-3,3h-34
		c-2,0-3-1-3-3V54.748"/>
</g>
<g id="_x23_Spring_x5F_07">
	<path fill="#BBCBCC" d="M445.861,50.824v-0.703c-0.1-0.329-0.066-0.703,0.101-1.126l0.199-0.528l1-0.772
		c0.334-0.188,0.733-0.282,1.2-0.282l0.25-0.07l20.2-3.798l3.75,0.703l-23.95,4.502l-0.25,0.07c-0.467,0-0.866,0.094-1.2,0.281
		l-1,0.773l-0.199,0.527L445.861,50.824 M445.861,37.46v-0.703c-0.1-0.328-0.066-0.703,0.101-1.125l1.199-1.302
		c0.601-0.328,1.434-0.386,2.5-0.176l32.851,6.189c0.967,0.165,1.633,0.47,2,0.915l0.05-0.036l0.05,0.177l0.5,1.266l0.15,1.16v0.668
		l-0.15-0.422l-0.5-1.266l-0.05-0.176l-0.05,0.035c-0.367-0.445-1.033-0.75-2-0.915l-32.851-6.188
		c-1.066-0.211-1.899-0.153-2.5,0.175l-1.199,1.302L445.861,37.46 M464.012,50.226l18.5,3.482c1.066,0.187,0.751,0.478,1.45,1.04
		l-0.491,0.605l0,0l-0.409,0.747c-0.667-0.494,0.417-0.822-0.55-0.986l-22.25-4.186L464.012,50.226"/>
	<path fill="#ACC0C1" d="M464.012,50.226l-3.75,0.703l22.25,4.186c0.967,0.164,0.8,0.492,1.467,0.986h-0.417l0.25,1.498
		c-0.5,1.359-0.917,1.947-2.85,1.596l-32.851-6.19c-1.733-0.328-2.483-1.055-2.25-2.18l0.101-0.423l0.199-0.527l1-0.773
		c0.334-0.188,0.733-0.281,1.2-0.281l0.25-0.07l23.95-4.502l-3.75-0.703l-20.7-3.903c-1.733-0.329-2.483-1.055-2.25-2.181
		l0.101-0.422l1.199-1.302c0.601-0.328,1.434-0.386,2.5-0.175l32.851,6.188c0.967,0.165,1.633,0.47,2,0.915l0.05-0.035l0.05,0.176
		l0.5,1.266l0.15,0.422c0.233,1.126-0.517,1.841-2.25,2.146L464.012,50.226"/>
	<path fill="#E86A17" d="M429.562,28.798c0.1-2.533,0.733-4.533,1.9-6c1.566-2,4.149-3,7.75-3h50.699c3.601,0,6.2,1,7.801,3
		c1.133,1.467,1.75,3.467,1.85,6v0.1v0.75h-0.05c-0.167,2.067-0.717,3.733-1.65,5l-1.25,1.3c-1.6,1.267-3.833,1.9-6.7,1.9h-50.699
		c-2.867,0-5.101-0.634-6.7-1.9l-1.2-1.25c-0.967-1.267-1.533-2.949-1.7-5.05h-0.05V28.798"/>
	<path fill="#EF975C" d="M429.562,28.798v-2c0.066-1.533,0.316-2.867,0.75-4c1.3-3.3,4.267-4.95,8.9-4.95h50.699
		c4.634,0,7.601,1.65,8.9,4.95c0.434,1.133,0.684,2.467,0.75,4v2c-0.1-2.533-0.717-4.533-1.85-6c-1.601-2-4.2-3-7.801-3h-50.699
		c-3.601,0-6.184,1-7.75,3C430.295,24.265,429.661,26.265,429.562,28.798"/>
	<path fill="#BBCBCC" d="M444.562,54.748c0.033-1.934,1.033-2.9,3-2.9h34c1.967,0,2.967,0.967,3,2.9h-0.6
		c-0.5-0.601-1.301-0.9-2.4-0.9h-34c-1.1,0-1.884,0.3-2.35,0.9H444.562"/>
	<path fill="#ACC0C1" d="M444.562,54.748h0.65c0.466-0.601,1.25-0.9,2.35-0.9h34c1.1,0,1.9,0.3,2.4,0.9h0.6v2.101c0,2-1,3-3,3h-34
		c-2,0-3-1-3-3V54.748"/>
</g>
<g id="_x23_Spring_x5F_08">
	<path fill="#BBCBCC" d="M515.861,51.134v-0.678c-0.1-0.317-0.066-0.678,0.101-1.085l0.199-0.509l1-0.745
		c0.334-0.181,0.733-0.271,1.2-0.271l0.25-0.067l20.2-3.66l3.75,0.678l-23.95,4.338l-0.25,0.067c-0.467,0-0.866,0.091-1.2,0.271
		l-1,0.745l-0.199,0.509L515.861,51.134 M515.861,38.257v-0.678c-0.1-0.316-0.066-0.678,0.101-1.084l1.199-1.254
		c0.601-0.316,1.434-0.372,2.5-0.169l32.851,5.963c0.967,0.159,1.633,0.452,2,0.882l0.05-0.034l0.05,0.169l0.5,1.22l0.15,1.118
		v0.644l-0.15-0.406l-0.5-1.22l-0.05-0.17l-0.05,0.034c-0.367-0.429-1.033-0.723-2-0.881l-32.851-5.963
		c-1.066-0.203-1.899-0.147-2.5,0.169l-1.199,1.253L515.861,38.257 M534.012,50.557l18.5,3.354c1.066,0.181,0.751,0.461,1.45,1.003
		l-0.491,0.583l0,0l-0.409,0.72c-0.667-0.476,0.417-0.792-0.55-0.95l-22.25-4.033L534.012,50.557"/>
	<path fill="#ACC0C1" d="M534.012,50.557l-3.75,0.677l22.25,4.033c0.967,0.158,0.8,0.475,1.467,0.95h-0.417l0.25,1.444
		c-0.5,1.309-0.917,1.875-2.85,1.536l-32.851-5.964c-1.733-0.315-2.483-1.016-2.25-2.1l0.101-0.407l0.199-0.509l1-0.745
		c0.334-0.181,0.733-0.271,1.2-0.271l0.25-0.067l23.95-4.338l-3.75-0.678l-20.7-3.761c-1.733-0.316-2.483-1.016-2.25-2.101
		l0.101-0.407l1.199-1.253c0.601-0.316,1.434-0.372,2.5-0.169l32.851,5.963c0.967,0.158,1.633,0.452,2,0.881l0.05-0.034l0.05,0.17
		l0.5,1.22l0.15,0.406c0.233,1.085-0.517,1.773-2.25,2.067L534.012,50.557"/>
	<path fill="#E86A17" d="M499.562,29.798c0.1-2.533,0.733-4.533,1.9-6c1.566-2,4.149-3,7.75-3h50.699c3.601,0,6.2,1,7.801,3
		c1.133,1.467,1.75,3.467,1.85,6v0.1v0.75h-0.05c-0.167,2.067-0.717,3.733-1.65,5l-1.25,1.3c-1.6,1.267-3.833,1.9-6.7,1.9h-50.699
		c-2.867,0-5.101-0.634-6.7-1.9l-1.2-1.25c-0.967-1.267-1.533-2.949-1.7-5.05h-0.05V29.798"/>
	<path fill="#EF975C" d="M499.562,29.798v-2c0.066-1.533,0.316-2.867,0.75-4c1.3-3.3,4.267-4.95,8.9-4.95h50.699
		c4.634,0,7.601,1.65,8.9,4.95c0.434,1.133,0.684,2.467,0.75,4v2c-0.1-2.533-0.717-4.533-1.85-6c-1.601-2-4.2-3-7.801-3h-50.699
		c-3.601,0-6.184,1-7.75,3C500.295,25.265,499.661,27.265,499.562,29.798"/>
	<path fill="#BBCBCC" d="M514.562,54.748c0.033-1.934,1.033-2.9,3-2.9h34c1.967,0,2.967,0.967,3,2.9h-0.6
		c-0.5-0.601-1.301-0.9-2.4-0.9h-34c-1.1,0-1.884,0.3-2.35,0.9H514.562"/>
	<path fill="#ACC0C1" d="M514.562,54.748h0.65c0.466-0.601,1.25-0.9,2.35-0.9h34c1.1,0,1.9,0.3,2.4,0.9h0.6v2.101c0,2-1,3-3,3h-34
		c-2,0-3-1-3-3V54.748"/>
</g>
<g id="_x23_Spring_x5F_09">
	<path fill="#BBCBCC" d="M585.861,51.64v-0.636c-0.1-0.298-0.066-0.636,0.101-1.019l0.199-0.477l1-0.698
		c0.334-0.17,0.733-0.255,1.2-0.255l0.25-0.063l20.2-3.434l3.75,0.636l-23.95,4.069l-0.25,0.063c-0.467,0-0.866,0.085-1.2,0.254
		l-1,0.699l-0.199,0.477L585.861,51.64 M585.861,39.561v-0.636c-0.1-0.297-0.066-0.636,0.101-1.017l1.199-1.176
		c0.601-0.298,1.434-0.35,2.5-0.159l32.851,5.594c0.967,0.148,1.633,0.424,2,0.827l0.05-0.032l0.05,0.158l0.5,1.145l0.15,1.049
		v0.604l-0.15-0.381l-0.5-1.145l-0.05-0.159l-0.05,0.032c-0.367-0.402-1.033-0.678-2-0.827l-32.851-5.593
		c-1.066-0.19-1.899-0.139-2.5,0.158l-1.199,1.176L585.861,39.561 M604.012,51.098l18.5,3.147c1.066,0.169,0.751,0.433,1.45,0.94
		l-0.491,0.547l0,0l-0.409,0.675c-0.667-0.445,0.417-0.742-0.55-0.891l-22.25-3.783L604.012,51.098"/>
	<path fill="#ACC0C1" d="M604.012,51.098l-3.75,0.636l22.25,3.783c0.967,0.148,0.8,0.445,1.467,0.891h-0.417l0.25,1.354
		c-0.5,1.229-0.917,1.759-2.85,1.441l-32.851-5.594c-1.733-0.297-2.483-0.953-2.25-1.97l0.101-0.383l0.199-0.477l1-0.699
		c0.334-0.169,0.733-0.254,1.2-0.254l0.25-0.063l23.95-4.069l-3.75-0.636l-20.7-3.527c-1.733-0.297-2.483-0.953-2.25-1.971
		l0.101-0.382l1.199-1.176c0.601-0.297,1.434-0.349,2.5-0.158l32.851,5.593c0.967,0.149,1.633,0.425,2,0.827l0.05-0.032l0.05,0.159
		l0.5,1.145l0.15,0.381c0.233,1.018-0.517,1.663-2.25,1.939L604.012,51.098"/>
	<path fill="#E86A17" d="M569.562,30.798c0.1-2.533,0.733-4.533,1.9-6c1.566-2,4.149-3,7.75-3h50.699c3.601,0,6.2,1,7.801,3
		c1.133,1.467,1.75,3.467,1.85,6v0.1v0.75h-0.05c-0.167,2.067-0.717,3.733-1.65,5l-1.25,1.3c-1.6,1.267-3.833,1.9-6.7,1.9h-50.699
		c-2.867,0-5.101-0.634-6.7-1.9l-1.2-1.25c-0.967-1.267-1.533-2.949-1.7-5.05h-0.05V30.798"/>
	<path fill="#EF975C" d="M569.562,30.798v-2c0.066-1.533,0.316-2.867,0.75-4c1.3-3.3,4.267-4.95,8.9-4.95h50.699
		c4.634,0,7.601,1.65,8.9,4.95c0.434,1.133,0.684,2.467,0.75,4v2c-0.1-2.533-0.717-4.533-1.85-6c-1.601-2-4.2-3-7.801-3h-50.699
		c-3.601,0-6.184,1-7.75,3C570.295,26.265,569.661,28.265,569.562,30.798"/>
	<path fill="#BBCBCC" d="M584.562,54.748c0.033-1.934,1.033-2.9,3-2.9h34c1.967,0,2.967,0.967,3,2.9h-0.6
		c-0.5-0.601-1.301-0.9-2.4-0.9h-34c-1.1,0-1.884,0.3-2.35,0.9H584.562"/>
	<path fill="#ACC0C1" d="M584.562,54.748h0.65c0.466-0.601,1.25-0.9,2.35-0.9h34c1.1,0,1.9,0.3,2.4,0.9h0.6v2.101c0,2-1,3-3,3h-34
		c-2,0-3-1-3-3V54.748"/>
</g>
<g id="_x23_Spring_x5F_10">
	<path fill="#BBCBCC" d="M655.861,52.421v-0.57c-0.1-0.267-0.066-0.571,0.101-0.914l0.199-0.429l1-0.627
		c0.334-0.152,0.733-0.229,1.2-0.229l0.25-0.057l20.2-3.083l3.75,0.57l-23.95,3.654l-0.25,0.057c-0.467,0-0.866,0.076-1.2,0.228
		l-1,0.629l-0.199,0.428L655.861,52.421 M655.861,41.577v-0.571c-0.1-0.267-0.066-0.57,0.101-0.913l1.199-1.056
		c0.601-0.267,1.434-0.314,2.5-0.143l32.851,5.021c0.967,0.134,1.633,0.382,2,0.743l0.05-0.029l0.05,0.143l0.5,1.027l0.15,0.942
		v0.542l-0.15-0.343l-0.5-1.027l-0.05-0.143l-0.05,0.028c-0.367-0.361-1.033-0.608-2-0.742l-32.851-5.021
		c-1.066-0.172-1.899-0.124-2.5,0.142l-1.199,1.056L655.861,41.577 M674.012,51.936l18.5,2.825c1.066,0.151,0.751,0.389,1.45,0.845
		l-0.491,0.491l0,0l-0.409,0.605c-0.667-0.4,0.417-0.666-0.55-0.8l-22.25-3.396L674.012,51.936"/>
	<path fill="#ACC0C1" d="M674.012,51.936l-3.75,0.57l22.25,3.396c0.967,0.134,0.8,0.399,1.467,0.8h-0.417l0.25,1.216
		c-0.5,1.103-0.917,1.579-2.85,1.294l-32.851-5.022c-1.733-0.266-2.483-0.855-2.25-1.769l0.101-0.343l0.199-0.428l1-0.629
		c0.334-0.151,0.733-0.228,1.2-0.228l0.25-0.057l23.95-3.654l-3.75-0.57l-20.7-3.167c-1.733-0.267-2.483-0.855-2.25-1.769
		l0.101-0.344l1.199-1.056c0.601-0.266,1.434-0.313,2.5-0.142l32.851,5.021c0.967,0.134,1.633,0.381,2,0.742l0.05-0.028l0.05,0.143
		l0.5,1.027l0.15,0.343c0.233,0.913-0.517,1.493-2.25,1.74L674.012,51.936"/>
	<path fill="#E86A17" d="M639.562,32.798c0.1-2.533,0.733-4.533,1.9-6c1.566-2,4.149-3,7.75-3h50.699c3.601,0,6.2,1,7.801,3
		c1.133,1.467,1.75,3.467,1.85,6v0.1v0.75h-0.05c-0.167,2.067-0.717,3.733-1.65,5l-1.25,1.3c-1.6,1.267-3.833,1.9-6.7,1.9h-50.699
		c-2.867,0-5.101-0.634-6.7-1.9l-1.2-1.25c-0.967-1.267-1.533-2.949-1.7-5.05h-0.05V32.798"/>
	<path fill="#EF975C" d="M639.562,32.798v-2c0.066-1.533,0.316-2.867,0.75-4c1.3-3.3,4.267-4.95,8.9-4.95h50.699
		c4.634,0,7.601,1.65,8.9,4.95c0.434,1.133,0.684,2.467,0.75,4v2c-0.1-2.533-0.717-4.533-1.85-6c-1.601-2-4.2-3-7.801-3h-50.699
		c-3.601,0-6.184,1-7.75,3C640.295,28.265,639.661,30.265,639.562,32.798"/>
	<path fill="#BBCBCC" d="M654.562,54.748c0.033-1.934,1.033-2.9,3-2.9h34c1.967,0,2.967,0.967,3,2.9h-0.6
		c-0.5-0.601-1.301-0.9-2.4-0.9h-34c-1.1,0-1.884,0.3-2.35,0.9H654.562"/>
	<path fill="#ACC0C1" d="M654.562,54.748h0.65c0.466-0.601,1.25-0.9,2.35-0.9h34c1.1,0,1.9,0.3,2.4,0.9h0.6v2.101c0,2-1,3-3,3h-34
		c-2,0-3-1-3-3V54.748"/>
</g>
<g id="_x23_Spring_x5F_11">
	<path fill="#BBCBCC" d="M725.861,52.819v-0.538c-0.1-0.251-0.066-0.537,0.101-0.861l0.199-0.403l1-0.59
		c0.334-0.144,0.733-0.216,1.2-0.216l0.25-0.054l20.2-2.904l3.75,0.538l-23.95,3.441l-0.25,0.054c-0.467,0-0.866,0.072-1.2,0.215
		l-1,0.592l-0.199,0.403L725.861,52.819 M725.861,42.604v-0.538c-0.1-0.251-0.066-0.538,0.101-0.86l1.199-0.995
		c0.601-0.251,1.434-0.296,2.5-0.134l32.851,4.73c0.967,0.126,1.633,0.359,2,0.7l0.05-0.027l0.05,0.135l0.5,0.968l0.15,0.887v0.511
		l-0.15-0.323l-0.5-0.968l-0.05-0.134l-0.05,0.027c-0.367-0.341-1.033-0.574-2-0.7l-32.851-4.73c-1.066-0.161-1.899-0.117-2.5,0.134
		l-1.199,0.995L725.861,42.604 M744.012,52.361l18.5,2.662c1.066,0.143,0.751,0.366,1.45,0.796l-0.491,0.462l0,0l-0.409,0.571
		c-0.667-0.377,0.417-0.628-0.55-0.754l-22.25-3.2L744.012,52.361"/>
	<path fill="#ACC0C1" d="M744.012,52.361l-3.75,0.537l22.25,3.2c0.967,0.126,0.8,0.377,1.467,0.754h-0.417l0.25,1.145
		c-0.5,1.039-0.917,1.488-2.85,1.221l-32.851-4.732c-1.733-0.251-2.483-0.806-2.25-1.666l0.101-0.323l0.199-0.403l1-0.592
		c0.334-0.143,0.733-0.215,1.2-0.215l0.25-0.054l23.95-3.441l-3.75-0.538l-20.7-2.983c-1.733-0.251-2.483-0.806-2.25-1.666
		l0.101-0.323l1.199-0.995c0.601-0.251,1.434-0.295,2.5-0.134l32.851,4.73c0.967,0.126,1.633,0.359,2,0.7l0.05-0.027l0.05,0.134
		l0.5,0.968l0.15,0.323c0.233,0.86-0.517,1.407-2.25,1.64L744.012,52.361"/>
	<path fill="#E86A17" d="M709.562,33.798c0.1-2.533,0.733-4.533,1.9-6c1.566-2,4.149-3,7.75-3h50.699c3.601,0,6.2,1,7.801,3
		c1.133,1.467,1.75,3.467,1.85,6v0.1v0.75h-0.05c-0.167,2.067-0.717,3.733-1.65,5l-1.25,1.3c-1.6,1.267-3.833,1.9-6.7,1.9h-50.699
		c-2.867,0-5.101-0.634-6.7-1.9l-1.2-1.25c-0.967-1.267-1.533-2.949-1.7-5.05h-0.05V33.798"/>
	<path fill="#EF975C" d="M709.562,33.798v-2c0.066-1.533,0.316-2.867,0.75-4c1.3-3.3,4.267-4.95,8.9-4.95h50.699
		c4.634,0,7.601,1.65,8.9,4.95c0.434,1.133,0.684,2.467,0.75,4v2c-0.1-2.533-0.717-4.533-1.85-6c-1.601-2-4.2-3-7.801-3h-50.699
		c-3.601,0-6.184,1-7.75,3C710.295,29.265,709.661,31.265,709.562,33.798"/>
	<path fill="#BBCBCC" d="M724.562,54.748c0.033-1.934,1.033-2.9,3-2.9h34c1.967,0,2.967,0.967,3,2.9h-0.6
		c-0.5-0.601-1.301-0.9-2.4-0.9h-34c-1.1,0-1.884,0.3-2.35,0.9H724.562"/>
	<path fill="#ACC0C1" d="M724.562,54.748h0.65c0.466-0.601,1.25-0.9,2.35-0.9h34c1.1,0,1.9,0.3,2.4,0.9h0.6v2.101c0,2-1,3-3,3h-34
		c-2,0-3-1-3-3V54.748"/>
</g>
<g id="_x23_Spring_x5F_12">
	<path fill="#BBCBCC" d="M795.861,53.294v-0.498c-0.1-0.232-0.066-0.498,0.101-0.798l0.199-0.374l1-0.547
		c0.334-0.133,0.733-0.2,1.2-0.2l0.25-0.05l20.2-2.69l3.75,0.498l-23.95,3.189l-0.25,0.049c-0.467,0-0.866,0.067-1.2,0.199l-1,0.549
		l-0.199,0.373L795.861,53.294 M795.861,43.827v-0.498c-0.1-0.232-0.066-0.498,0.101-0.798l1.199-0.921
		c0.601-0.233,1.434-0.274,2.5-0.125l32.851,4.384c0.967,0.117,1.633,0.333,2,0.648l0.05-0.025l0.05,0.125l0.5,0.897l0.15,0.821
		v0.474l-0.15-0.3l-0.5-0.896l-0.05-0.124l-0.05,0.025c-0.367-0.316-1.033-0.532-2-0.648l-32.851-4.384
		c-1.066-0.15-1.899-0.108-2.5,0.124l-1.199,0.922L795.861,43.827 M814.012,52.87l18.5,2.466c1.066,0.133,0.751,0.34,1.45,0.738
		l-0.491,0.428l0,0l-0.409,0.529c-0.667-0.35,0.417-0.581-0.55-0.698l-22.25-2.965L814.012,52.87"/>
	<path fill="#ACC0C1" d="M814.012,52.87l-3.75,0.498l22.25,2.965c0.967,0.117,0.8,0.349,1.467,0.698h-0.417l0.25,1.062
		c-0.5,0.963-0.917,1.379-2.85,1.13l-32.851-4.385c-1.733-0.232-2.483-0.747-2.25-1.544l0.101-0.3l0.199-0.373l1-0.549
		c0.334-0.132,0.733-0.199,1.2-0.199l0.25-0.049l23.95-3.189l-3.75-0.498l-20.7-2.766c-1.733-0.232-2.483-0.746-2.25-1.544
		l0.101-0.299l1.199-0.922c0.601-0.232,1.434-0.274,2.5-0.124l32.851,4.384c0.967,0.116,1.633,0.332,2,0.648l0.05-0.025l0.05,0.124
		l0.5,0.896l0.15,0.3c0.233,0.797-0.517,1.304-2.25,1.52L814.012,52.87"/>
	<path fill="#E86A17" d="M779.562,34.798c0.1-2.533,0.733-4.533,1.9-6c1.566-2,4.149-3,7.75-3h50.699c3.601,0,6.2,1,7.801,3
		c1.133,1.467,1.75,3.467,1.85,6v0.1v0.75h-0.05c-0.167,2.067-0.717,3.733-1.65,5l-1.25,1.3c-1.6,1.267-3.833,1.9-6.7,1.9h-50.699
		c-2.867,0-5.101-0.634-6.7-1.9l-1.2-1.25c-0.967-1.267-1.533-2.949-1.7-5.05h-0.05V34.798"/>
	<path fill="#EF975C" d="M779.562,34.798v-2c0.066-1.533,0.316-2.867,0.75-4c1.3-3.3,4.267-4.95,8.9-4.95h50.699
		c4.634,0,7.601,1.65,8.9,4.95c0.434,1.133,0.684,2.467,0.75,4v2c-0.1-2.533-0.717-4.533-1.85-6c-1.601-2-4.2-3-7.801-3h-50.699
		c-3.601,0-6.184,1-7.75,3C780.295,30.265,779.661,32.265,779.562,34.798"/>
	<path fill="#BBCBCC" d="M794.562,54.748c0.033-1.934,1.033-2.9,3-2.9h34c1.967,0,2.967,0.967,3,2.9h-0.6
		c-0.5-0.601-1.301-0.9-2.4-0.9h-34c-1.1,0-1.884,0.3-2.35,0.9H794.562"/>
	<path fill="#ACC0C1" d="M794.562,54.748h0.65c0.466-0.601,1.25-0.9,2.35-0.9h34c1.1,0,1.9,0.3,2.4,0.9h0.6v2.101c0,2-1,3-3,3h-34
		c-2,0-3-1-3-3V54.748"/>
</g>
<g id="_x23_Spring_x5F_13">
	<path fill="#BBCBCC" d="M865.861,53.797V53.34c-0.1-0.213-0.066-0.456,0.101-0.73l0.199-0.343l1-0.501
		c0.334-0.122,0.733-0.183,1.2-0.183l0.25-0.047l20.2-2.465l3.75,0.457l-23.95,2.922l-0.25,0.045c-0.467,0-0.866,0.062-1.2,0.183
		l-1,0.503l-0.199,0.342L865.861,53.797 M865.861,45.124v-0.457c-0.1-0.213-0.066-0.456,0.101-0.73l1.199-0.844
		c0.601-0.214,1.434-0.252,2.5-0.114l32.851,4.016c0.967,0.107,1.633,0.306,2,0.595l0.05-0.023l0.05,0.114l0.5,0.822l0.15,0.753
		v0.434l-0.15-0.274l-0.5-0.822l-0.05-0.113l-0.05,0.023c-0.367-0.29-1.033-0.487-2-0.595l-32.851-4.016
		c-1.066-0.138-1.899-0.1-2.5,0.113l-1.199,0.845L865.861,45.124 M884.012,53.408l18.5,2.26c1.066,0.122,0.751,0.312,1.45,0.677
		l-0.491,0.391l0,0l-0.409,0.485c-0.667-0.32,0.417-0.532-0.55-0.64l-22.25-2.717L884.012,53.408"/>
	<path fill="#ACC0C1" d="M884.012,53.408l-3.75,0.456l22.25,2.717c0.967,0.107,0.8,0.319,1.467,0.64h-0.417l0.25,0.973
		c-0.5,0.882-0.917,1.263-2.85,1.035l-32.851-4.018c-1.733-0.212-2.483-0.684-2.25-1.414l0.101-0.274l0.199-0.342l1-0.503
		c0.334-0.121,0.733-0.183,1.2-0.183l0.25-0.045l23.95-2.922l-3.75-0.457l-20.7-2.533c-1.733-0.213-2.483-0.684-2.25-1.414
		l0.101-0.274l1.199-0.845c0.601-0.213,1.434-0.251,2.5-0.113l32.851,4.016c0.967,0.107,1.633,0.305,2,0.595l0.05-0.023l0.05,0.113
		l0.5,0.822l0.15,0.274c0.233,0.729-0.517,1.194-2.25,1.392L884.012,53.408"/>
	<path fill="#E86A17" d="M849.562,35.798c0.1-2.533,0.733-4.533,1.9-6c1.566-2,4.149-3,7.75-3h50.699c3.601,0,6.2,1,7.801,3
		c1.133,1.467,1.75,3.467,1.85,6v0.1v0.75h-0.05c-0.167,2.067-0.717,3.733-1.65,5l-1.25,1.3c-1.6,1.267-3.833,1.9-6.7,1.9h-50.699
		c-2.867,0-5.101-0.634-6.7-1.9l-1.2-1.25c-0.967-1.267-1.533-2.949-1.7-5.05h-0.05V35.798"/>
	<path fill="#EF975C" d="M849.562,35.798v-2c0.066-1.533,0.316-2.867,0.75-4c1.3-3.3,4.267-4.95,8.9-4.95h50.699
		c4.634,0,7.601,1.65,8.9,4.95c0.434,1.133,0.684,2.467,0.75,4v2c-0.1-2.533-0.717-4.533-1.85-6c-1.601-2-4.2-3-7.801-3h-50.699
		c-3.601,0-6.184,1-7.75,3C850.295,31.265,849.661,33.265,849.562,35.798"/>
	<path fill="#BBCBCC" d="M864.562,54.748c0.033-1.934,1.033-2.9,3-2.9h34c1.967,0,2.967,0.967,3,2.9h-0.6
		c-0.5-0.601-1.301-0.9-2.4-0.9h-34c-1.1,0-1.884,0.3-2.35,0.9H864.562"/>
	<path fill="#ACC0C1" d="M864.562,54.748h0.65c0.466-0.601,1.25-0.9,2.35-0.9h34c1.1,0,1.9,0.3,2.4,0.9h0.6v2.101c0,2-1,3-3,3h-34
		c-2,0-3-1-3-3V54.748"/>
</g>
<g id="_x23_Spring_x5F_15">
	<path fill="#BBCBCC" d="M935.861,54.685v-0.382c-0.1-0.179-0.066-0.383,0.101-0.613l0.199-0.286l1-0.421
		c0.334-0.103,0.733-0.153,1.2-0.153l0.25-0.039l20.2-2.066l3.75,0.383l-23.95,2.449l-0.25,0.039c-0.467,0-0.866,0.051-1.2,0.152
		l-1,0.422l-0.199,0.286L935.861,54.685 M935.861,47.414v-0.383c-0.1-0.179-0.066-0.383,0.101-0.613l1.199-0.707
		c0.601-0.18,1.434-0.211,2.5-0.096l32.851,3.367c0.967,0.09,1.633,0.256,2,0.498l0.05-0.02l0.05,0.096l0.5,0.689l0.15,0.632v0.363
		l-0.15-0.23l-0.5-0.689l-0.05-0.095l-0.05,0.02c-0.367-0.243-1.033-0.409-2-0.498l-32.851-3.367
		c-1.066-0.115-1.899-0.084-2.5,0.095l-1.199,0.708L935.861,47.414 M954.012,54.36l18.5,1.894c1.066,0.103,0.751,0.261,1.45,0.567
		l-0.491,0.328l0,0l-0.409,0.406c-0.667-0.269,0.417-0.447-0.55-0.536l-22.25-2.277L954.012,54.36"/>
	<path fill="#ACC0C1" d="M954.012,54.36l-3.75,0.382l22.25,2.277c0.967,0.089,0.8,0.268,1.467,0.536h-0.417l0.25,0.815
		c-0.5,0.739-0.917,1.06-2.85,0.868l-32.851-3.368c-1.733-0.178-2.483-0.573-2.25-1.187l0.101-0.229l0.199-0.286l1-0.422
		c0.334-0.102,0.733-0.152,1.2-0.152l0.25-0.039l23.95-2.449l-3.75-0.383l-20.7-2.124c-1.733-0.179-2.483-0.573-2.25-1.186
		l0.101-0.23l1.199-0.708c0.601-0.179,1.434-0.21,2.5-0.095l32.851,3.367c0.967,0.089,1.633,0.255,2,0.498l0.05-0.02l0.05,0.095
		l0.5,0.689l0.15,0.23c0.233,0.611-0.517,1.001-2.25,1.167L954.012,54.36"/>
	<path fill="#E86A17" d="M919.562,37.798c0.1-2.533,0.733-4.533,1.9-6c1.566-2,4.149-3,7.75-3h50.699c3.601,0,6.2,1,7.801,3
		c1.133,1.467,1.75,3.467,1.85,6v0.1v0.75h-0.05c-0.167,2.067-0.717,3.733-1.65,5l-1.25,1.3c-1.6,1.267-3.833,1.9-6.7,1.9h-50.699
		c-2.867,0-5.101-0.634-6.7-1.9l-1.2-1.25c-0.967-1.267-1.533-2.949-1.7-5.05h-0.05V37.798"/>
	<path fill="#EF975C" d="M919.562,37.798v-2c0.066-1.533,0.316-2.867,0.75-4c1.3-3.3,4.267-4.95,8.9-4.95h50.699
		c4.634,0,7.601,1.65,8.9,4.95c0.434,1.133,0.684,2.467,0.75,4v2c-0.1-2.533-0.717-4.533-1.85-6c-1.601-2-4.2-3-7.801-3h-50.699
		c-3.601,0-6.184,1-7.75,3C920.295,33.265,919.661,35.265,919.562,37.798"/>
	<path fill="#BBCBCC" d="M934.562,54.749c0.033-1.934,1.033-2.9,3-2.9h34c1.967,0,2.967,0.967,3,2.9h-0.6
		c-0.5-0.602-1.301-0.9-2.4-0.9h-34c-1.1,0-1.884,0.299-2.35,0.9H934.562"/>
	<path fill="#ACC0C1" d="M934.562,54.749h0.65c0.466-0.602,1.25-0.9,2.35-0.9h34c1.1,0,1.9,0.299,2.4,0.9h0.6v2.1c0,2-1,3-3,3h-34
		c-2,0-3-1-3-3V54.749"/>
</g>
</svg>
